<svg id="visual" viewBox="0 0 1400 750" width="1400" height="750" xmlns="http://www.w3.org/2000/svg" xmlns:xlink="http://www.w3.org/1999/xlink" version="1.1"><path d="M0 282L11.2 286.3C22.3 290.7 44.7 299.3 66.8 311C89 322.7 111 337.3 133.2 339.7C155.3 342 177.7 332 200 317.2C222.3 302.3 244.7 282.7 266.8 276.3C289 270 311 277 333.2 286C355.3 295 377.7 306 400 316C422.3 326 444.7 335 466.8 331.3C489 327.7 511 311.3 533.2 312.2C555.3 313 577.7 331 600 333C622.3 335 644.7 321 666.8 318.3C689 315.7 711 324.3 733.2 330C755.3 335.7 777.7 338.3 800 338.3C822.3 338.3 844.7 335.7 866.8 323C889 310.3 911 287.7 933.2 289.5C955.3 291.3 977.7 317.7 1000 331.5C1022.3 345.3 1044.7 346.7 1066.8 347.5C1089 348.3 1111 348.7 1133.2 349.7C1155.3 350.7 1177.7 352.3 1200 344.3C1222.3 336.3 1244.7 318.7 1266.8 307C1289 295.3 1311 289.7 1333.2 286.8C1355.3 284 1377.7 284 1388.8 284L1400 284L1400 751L1388.8 751C1377.7 751 1355.3 751 1333.2 751C1311 751 1289 751 1266.8 751C1244.7 751 1222.3 751 1200 751C1177.7 751 1155.3 751 1133.2 751C1111 751 1089 751 1066.8 751C1044.7 751 1022.3 751 1000 751C977.7 751 955.3 751 933.2 751C911 751 889 751 866.8 751C844.7 751 822.3 751 800 751C777.7 751 755.3 751 733.2 751C711 751 689 751 666.8 751C644.7 751 622.3 751 600 751C577.7 751 555.3 751 533.2 751C511 751 489 751 466.8 751C444.7 751 422.3 751 400 751C377.7 751 355.3 751 333.2 751C311 751 289 751 266.8 751C244.7 751 222.3 751 200 751C177.7 751 155.3 751 133.2 751C111 751 89 751 66.8 751C44.7 751 22.3 751 11.2 751L0 751Z" fill="#a3af9f"></path><path d="M0 365L11.2 369C22.3 373 44.7 381 66.8 392C89 403 111 417 133.2 417.3C155.3 417.7 177.7 404.3 200 394.7C222.3 385 244.7 379 266.8 381C289 383 311 393 333.2 403.2C355.3 413.3 377.7 423.7 400 418.2C422.3 412.7 444.7 391.3 466.8 391C489 390.7 511 411.3 533.2 411.3C555.3 411.3 577.7 390.7 600 380.3C622.3 370 644.7 370 666.8 379.5C689 389 711 408 733.2 411.8C755.3 415.7 777.7 404.3 800 393.7C822.3 383 844.7 373 866.8 369C889 365 911 367 933.2 375.2C955.3 383.3 977.7 397.7 1000 398.3C1022.3 399 1044.7 386 1066.8 384.3C1089 382.7 1111 392.3 1133.2 396.2C1155.3 400 1177.7 398 1200 393.7C1222.3 389.3 1244.7 382.7 1266.8 377.8C1289 373 1311 370 1333.2 375.2C1355.3 380.3 1377.7 393.7 1388.8 400.3L1400 407L1400 751L1388.8 751C1377.7 751 1355.3 751 1333.2 751C1311 751 1289 751 1266.8 751C1244.7 751 1222.3 751 1200 751C1177.7 751 1155.3 751 1133.2 751C1111 751 1089 751 1066.8 751C1044.7 751 1022.3 751 1000 751C977.7 751 955.3 751 933.2 751C911 751 889 751 866.8 751C844.7 751 822.3 751 800 751C777.7 751 755.3 751 733.2 751C711 751 689 751 666.8 751C644.7 751 622.3 751 600 751C577.7 751 555.3 751 533.2 751C511 751 489 751 466.8 751C444.7 751 422.3 751 400 751C377.7 751 355.3 751 333.2 751C311 751 289 751 266.8 751C244.7 751 222.3 751 200 751C177.7 751 155.3 751 133.2 751C111 751 89 751 66.8 751C44.7 751 22.3 751 11.2 751L0 751Z" fill="#838c7f"></path><path d="M0 444L11.2 454.8C22.3 465.7 44.7 487.3 66.8 497C89 506.7 111 504.3 133.2 498.2C155.3 492 177.7 482 200 480.3C222.3 478.7 244.7 485.3 266.8 491.3C289 497.3 311 502.7 333.2 505.3C355.3 508 377.7 508 400 499.5C422.3 491 444.7 474 466.8 470.5C489 467 511 477 533.2 483.8C555.3 490.7 577.7 494.3 600 495C622.3 495.7 644.7 493.3 666.8 495.2C689 497 711 503 733.2 500.7C755.3 498.3 777.7 487.7 800 476.5C822.3 465.3 844.7 453.7 866.8 448.5C889 443.3 911 444.7 933.2 452.8C955.3 461 977.7 476 1000 484C1022.3 492 1044.7 493 1066.8 495.5C1089 498 1111 502 1133.2 501.5C1155.3 501 1177.7 496 1200 494.2C1222.3 492.3 1244.7 493.7 1266.8 498C1289 502.3 1311 509.7 1333.2 504.3C1355.3 499 1377.7 481 1388.8 472L1400 463L1400 751L1388.8 751C1377.7 751 1355.3 751 1333.2 751C1311 751 1289 751 1266.8 751C1244.7 751 1222.3 751 1200 751C1177.7 751 1155.3 751 1133.2 751C1111 751 1089 751 1066.8 751C1044.7 751 1022.3 751 1000 751C977.7 751 955.3 751 933.2 751C911 751 889 751 866.8 751C844.7 751 822.3 751 800 751C777.7 751 755.3 751 733.2 751C711 751 689 751 666.8 751C644.7 751 622.3 751 600 751C577.7 751 555.3 751 533.2 751C511 751 489 751 466.8 751C444.7 751 422.3 751 400 751C377.7 751 355.3 751 333.2 751C311 751 289 751 266.8 751C244.7 751 222.3 751 200 751C177.7 751 155.3 751 133.2 751C111 751 89 751 66.8 751C44.7 751 22.3 751 11.2 751L0 751Z" fill="#646b61"></path><path d="M0 546L11.2 547C22.3 548 44.7 550 66.8 547.8C89 545.7 111 539.3 133.2 537.5C155.3 535.7 177.7 538.3 200 544.2C222.3 550 244.7 559 266.8 558.5C289 558 311 548 333.2 547C355.3 546 377.7 554 400 554.3C422.3 554.7 444.7 547.3 466.8 548.7C489 550 511 560 533.2 560.8C555.3 561.7 577.7 553.3 600 547.3C622.3 541.3 644.7 537.7 666.8 544.5C689 551.3 711 568.7 733.2 576.8C755.3 585 777.7 584 800 576.8C822.3 569.7 844.7 556.3 866.8 553.7C889 551 911 559 933.2 559.2C955.3 559.3 977.7 551.7 1000 547C1022.3 542.3 1044.7 540.7 1066.8 545C1089 549.3 1111 559.7 1133.2 559C1155.3 558.3 1177.7 546.7 1200 540.8C1222.3 535 1244.7 535 1266.8 544.3C1289 553.7 1311 572.3 1333.2 572.5C1355.3 572.7 1377.7 554.3 1388.8 545.2L1400 536L1400 751L1388.8 751C1377.7 751 1355.3 751 1333.2 751C1311 751 1289 751 1266.8 751C1244.7 751 1222.3 751 1200 751C1177.7 751 1155.3 751 1133.2 751C1111 751 1089 751 1066.8 751C1044.7 751 1022.3 751 1000 751C977.7 751 955.3 751 933.2 751C911 751 889 751 866.8 751C844.7 751 822.3 751 800 751C777.7 751 755.3 751 733.2 751C711 751 689 751 666.8 751C644.7 751 622.3 751 600 751C577.7 751 555.3 751 533.2 751C511 751 489 751 466.8 751C444.7 751 422.3 751 400 751C377.7 751 355.3 751 333.2 751C311 751 289 751 266.8 751C244.7 751 222.3 751 200 751C177.7 751 155.3 751 133.2 751C111 751 89 751 66.8 751C44.7 751 22.3 751 11.2 751L0 751Z" fill="#464b45"></path><path d="M0 678L11.2 669C22.3 660 44.7 642 66.8 639C89 636 111 648 133.2 652.3C155.3 656.7 177.7 653.3 200 656.5C222.3 659.7 244.7 669.3 266.8 672C289 674.7 311 670.3 333.2 661.7C355.3 653 377.7 640 400 638.2C422.3 636.3 444.7 645.7 466.8 648C489 650.3 511 645.7 533.2 642.5C555.3 639.3 577.7 637.7 600 635C622.3 632.3 644.7 628.7 666.8 626.8C689 625 711 625 733.2 633.3C755.3 641.7 777.7 658.3 800 659.7C822.3 661 844.7 647 866.8 642.7C889 638.3 911 643.7 933.2 642.2C955.3 640.7 977.7 632.3 1000 635.3C1022.3 638.3 1044.7 652.7 1066.8 659C1089 665.3 1111 663.7 1133.2 658.8C1155.3 654 1177.7 646 1200 647.3C1222.3 648.7 1244.7 659.3 1266.8 656.3C1289 653.3 1311 636.7 1333.2 637.3C1355.3 638 1377.7 656 1388.8 665L1400 674L1400 751L1388.8 751C1377.7 751 1355.3 751 1333.2 751C1311 751 1289 751 1266.8 751C1244.7 751 1222.3 751 1200 751C1177.7 751 1155.3 751 1133.2 751C1111 751 1089 751 1066.8 751C1044.7 751 1022.3 751 1000 751C977.7 751 955.3 751 933.2 751C911 751 889 751 866.8 751C844.7 751 822.3 751 800 751C777.7 751 755.3 751 733.2 751C711 751 689 751 666.8 751C644.7 751 622.3 751 600 751C577.7 751 555.3 751 533.2 751C511 751 489 751 466.8 751C444.7 751 422.3 751 400 751C377.7 751 355.3 751 333.2 751C311 751 289 751 266.8 751C244.7 751 222.3 751 200 751C177.7 751 155.3 751 133.2 751C111 751 89 751 66.8 751C44.7 751 22.3 751 11.2 751L0 751Z" fill="#2b2e2a"></path></svg>