<svg id="visual" viewBox="0 0 1600 750" width="1600" height="750" xmlns="http://www.w3.org/2000/svg" xmlns:xlink="http://www.w3.org/1999/xlink" version="1.1"><path d="M0 253L26.7 245.8C53.3 238.7 106.7 224.3 160 217C213.3 209.7 266.7 209.3 320 191.5C373.3 173.7 426.7 138.3 480 147.2C533.3 156 586.7 209 640 227C693.3 245 746.7 228 800 207.7C853.3 187.3 906.7 163.7 960 177.5C1013.3 191.3 1066.7 242.7 1120 261.2C1173.3 279.7 1226.7 265.3 1280 236.3C1333.3 207.3 1386.7 163.7 1440 159.2C1493.3 154.7 1546.7 189.3 1573.3 206.7L1600 224L1600 751L1573.3 751C1546.7 751 1493.3 751 1440 751C1386.7 751 1333.3 751 1280 751C1226.7 751 1173.3 751 1120 751C1066.7 751 1013.3 751 960 751C906.7 751 853.3 751 800 751C746.7 751 693.3 751 640 751C586.7 751 533.3 751 480 751C426.7 751 373.3 751 320 751C266.7 751 213.3 751 160 751C106.7 751 53.3 751 26.7 751L0 751Z" fill="#6f7788"></path><path d="M0 244L26.7 242.2C53.3 240.3 106.7 236.7 160 259C213.3 281.3 266.7 329.7 320 340.7C373.3 351.7 426.7 325.3 480 311.8C533.3 298.3 586.7 297.7 640 307C693.3 316.3 746.7 335.7 800 340.2C853.3 344.7 906.7 334.3 960 314.5C1013.3 294.7 1066.7 265.3 1120 275.2C1173.3 285 1226.7 334 1280 332.8C1333.3 331.7 1386.7 280.3 1440 268.8C1493.3 257.3 1546.7 285.7 1573.3 299.8L1600 314L1600 751L1573.3 751C1546.7 751 1493.3 751 1440 751C1386.7 751 1333.3 751 1280 751C1226.7 751 1173.3 751 1120 751C1066.7 751 1013.3 751 960 751C906.7 751 853.3 751 800 751C746.7 751 693.3 751 640 751C586.7 751 533.3 751 480 751C426.7 751 373.3 751 320 751C266.7 751 213.3 751 160 751C106.7 751 53.3 751 26.7 751L0 751Z" fill="#636f87"></path><path d="M0 443L26.7 437.8C53.3 432.7 106.7 422.3 160 418.5C213.3 414.7 266.7 417.3 320 430.3C373.3 443.3 426.7 466.7 480 457.8C533.3 449 586.7 408 640 382.3C693.3 356.7 746.7 346.3 800 365.2C853.3 384 906.7 432 960 452C1013.3 472 1066.7 464 1120 447.7C1173.3 431.3 1226.7 406.7 1280 398.7C1333.3 390.7 1386.7 399.3 1440 415.2C1493.3 431 1546.7 454 1573.3 465.5L1600 477L1600 751L1573.3 751C1546.7 751 1493.3 751 1440 751C1386.7 751 1333.3 751 1280 751C1226.7 751 1173.3 751 1120 751C1066.7 751 1013.3 751 960 751C906.7 751 853.3 751 800 751C746.7 751 693.3 751 640 751C586.7 751 533.3 751 480 751C426.7 751 373.3 751 320 751C266.7 751 213.3 751 160 751C106.7 751 53.3 751 26.7 751L0 751Z" fill="#556886"></path><path d="M0 573L26.7 566.8C53.3 560.7 106.7 548.3 160 533.3C213.3 518.3 266.7 500.7 320 496.5C373.3 492.3 426.7 501.7 480 500.7C533.3 499.7 586.7 488.3 640 496.7C693.3 505 746.7 533 800 538.8C853.3 544.7 906.7 528.3 960 521.7C1013.3 515 1066.7 518 1120 511.8C1173.3 505.7 1226.7 490.3 1280 487.5C1333.3 484.7 1386.7 494.3 1440 498.2C1493.3 502 1546.7 500 1573.3 499L1600 498L1600 751L1573.3 751C1546.7 751 1493.3 751 1440 751C1386.7 751 1333.3 751 1280 751C1226.7 751 1173.3 751 1120 751C1066.7 751 1013.3 751 960 751C906.7 751 853.3 751 800 751C746.7 751 693.3 751 640 751C586.7 751 533.3 751 480 751C426.7 751 373.3 751 320 751C266.7 751 213.3 751 160 751C106.7 751 53.3 751 26.7 751L0 751Z" fill="#476085"></path><path d="M0 651L26.7 650.2C53.3 649.3 106.7 647.7 160 644.3C213.3 641 266.7 636 320 626.3C373.3 616.7 426.7 602.3 480 595.7C533.3 589 586.7 590 640 605.2C693.3 620.3 746.7 649.7 800 650C853.3 650.3 906.7 621.7 960 606.3C1013.3 591 1066.7 589 1120 585.3C1173.3 581.7 1226.7 576.3 1280 592.5C1333.3 608.7 1386.7 646.3 1440 648C1493.3 649.7 1546.7 615.3 1573.3 598.2L1600 581L1600 751L1573.3 751C1546.7 751 1493.3 751 1440 751C1386.7 751 1333.3 751 1280 751C1226.7 751 1173.3 751 1120 751C1066.7 751 1013.3 751 960 751C906.7 751 853.3 751 800 751C746.7 751 693.3 751 640 751C586.7 751 533.3 751 480 751C426.7 751 373.3 751 320 751C266.7 751 213.3 751 160 751C106.7 751 53.3 751 26.7 751L0 751Z" fill="#365984"></path></svg>