<svg id="visual" viewBox="0 0 1600 750" width="1600" height="750" xmlns="http://www.w3.org/2000/svg" xmlns:xlink="http://www.w3.org/1999/xlink" version="1.1"><path d="M0 111L29.7 122.5C59.3 134 118.7 157 178 181.5C237.3 206 296.7 232 355.8 251.5C415 271 474 284 533.2 279.2C592.3 274.3 651.7 251.7 711 222C770.3 192.3 829.7 155.7 889 158.8C948.3 162 1007.7 205 1066.8 211.8C1126 218.7 1185 189.3 1244.2 197.2C1303.3 205 1362.7 250 1422 254.3C1481.3 258.7 1540.7 222.3 1570.3 204.2L1600 186L1600 751L1570.3 751C1540.7 751 1481.3 751 1422 751C1362.7 751 1303.3 751 1244.2 751C1185 751 1126 751 1066.8 751C1007.7 751 948.3 751 889 751C829.7 751 770.3 751 711 751C651.7 751 592.3 751 533.2 751C474 751 415 751 355.8 751C296.7 751 237.3 751 178 751C118.7 751 59.3 751 29.7 751L0 751Z" fill="#a2a2a2"></path><path d="M0 267L29.7 269.3C59.3 271.7 118.7 276.3 178 289.3C237.3 302.3 296.7 323.7 355.8 330.3C415 337 474 329 533.2 332.3C592.3 335.7 651.7 350.3 711 360.7C770.3 371 829.7 377 889 377.2C948.3 377.3 1007.7 371.7 1066.8 355.3C1126 339 1185 312 1244.2 297.5C1303.3 283 1362.7 281 1422 288C1481.3 295 1540.7 311 1570.3 319L1600 327L1600 751L1570.3 751C1540.7 751 1481.3 751 1422 751C1362.7 751 1303.3 751 1244.2 751C1185 751 1126 751 1066.8 751C1007.7 751 948.3 751 889 751C829.7 751 770.3 751 711 751C651.7 751 592.3 751 533.2 751C474 751 415 751 355.8 751C296.7 751 237.3 751 178 751C118.7 751 59.3 751 29.7 751L0 751Z" fill="#858a8f"></path><path d="M0 368L29.7 371.3C59.3 374.7 118.7 381.3 178 384C237.3 386.7 296.7 385.3 355.8 388.3C415 391.3 474 398.7 533.2 392.8C592.3 387 651.7 368 711 358.7C770.3 349.3 829.7 349.7 889 356.8C948.3 364 1007.7 378 1066.8 380.2C1126 382.3 1185 372.7 1244.2 364.3C1303.3 356 1362.7 349 1422 352.5C1481.3 356 1540.7 370 1570.3 377L1600 384L1600 751L1570.3 751C1540.7 751 1481.3 751 1422 751C1362.7 751 1303.3 751 1244.2 751C1185 751 1126 751 1066.8 751C1007.7 751 948.3 751 889 751C829.7 751 770.3 751 711 751C651.7 751 592.3 751 533.2 751C474 751 415 751 355.8 751C296.7 751 237.3 751 178 751C118.7 751 59.3 751 29.7 751L0 751Z" fill="#68737c"></path><path d="M0 539L29.7 539C59.3 539 118.7 539 178 538.3C237.3 537.7 296.7 536.3 355.8 527C415 517.7 474 500.3 533.2 506.5C592.3 512.7 651.7 542.3 711 547.5C770.3 552.7 829.7 533.3 889 525.2C948.3 517 1007.7 520 1066.8 526.7C1126 533.3 1185 543.7 1244.2 539.2C1303.3 534.7 1362.7 515.3 1422 498.8C1481.3 482.3 1540.7 468.7 1570.3 461.8L1600 455L1600 751L1570.3 751C1540.7 751 1481.3 751 1422 751C1362.7 751 1303.3 751 1244.2 751C1185 751 1126 751 1066.8 751C1007.7 751 948.3 751 889 751C829.7 751 770.3 751 711 751C651.7 751 592.3 751 533.2 751C474 751 415 751 355.8 751C296.7 751 237.3 751 178 751C118.7 751 59.3 751 29.7 751L0 751Z" fill="#4c5d6a"></path><path d="M0 619L29.7 616.5C59.3 614 118.7 609 178 617.2C237.3 625.3 296.7 646.7 355.8 660.2C415 673.7 474 679.3 533.2 669.7C592.3 660 651.7 635 711 615.5C770.3 596 829.7 582 889 588C948.3 594 1007.7 620 1066.8 636.3C1126 652.7 1185 659.3 1244.2 654.8C1303.3 650.3 1362.7 634.7 1422 629C1481.3 623.3 1540.7 627.7 1570.3 629.8L1600 632L1600 751L1570.3 751C1540.7 751 1481.3 751 1422 751C1362.7 751 1303.3 751 1244.2 751C1185 751 1126 751 1066.8 751C1007.7 751 948.3 751 889 751C829.7 751 770.3 751 711 751C651.7 751 592.3 751 533.2 751C474 751 415 751 355.8 751C296.7 751 237.3 751 178 751C118.7 751 59.3 751 29.7 751L0 751Z" fill="#2f4858"></path></svg>